<?xml version="1.0" encoding="utf-8"?><svg x="0" y="0" width="400" height="400" viewBox="0 0 400 400" xmlns="http://www.w3.org/2000/svg"><g><path d="M 45.4 91.7 C 31.8 91.5 12.4 77.6 12.4 59.4 c 0 -29.7 22.5 -53.8 50.2 -53.8 c 27.7 0 50.2 24.1 50.2 53.8 c 0 18.2 -17.6 32.1 -33.2 32.3" class="anim_5 black"></path><path d="M 48.8 50.5 c 0 5.7 -4.6 10.4 -10.4 10.4 c -5.7 0 -10.4 -4.6 -10.4 -10.4 c 0 -5.7 4.6 -10.4 10.4 -10.4 C 44.1 40.1 48.8 44.8 48.8 50.5 z" class="anim_2 eye"></path><path d="M 54.4 66.5 L 62.6 74.7 L 70.8 66.5 Z" class="anim_1 black"></path><path d="M 25.8 111.4 L 62.5 74.7 L 99.3 111.3" class="anim_0 black"></path><path d="M 95.7 19 c 9.5 6.1 18 14.2 22.2 24.7 c 1.2 3 2.5 6 3.2 9.1 c 2 9.1 2 18.5 -0.5 27.5 C 118.2 88.9 113.9 96.9 107.9 103.6 c -2.6 2.9 -5.5 5.5 -8.6 7.8" class="anim_3 black"></path><path d="M 29.3 19 c -9.5 6.1 -17.9 14.2 -22.1 24.7 c -1.2 3 -2.5 6 -3.2 9.1 c -2 9.1 -2 18.5 0.5 27.5 C 6.9 88.9 11.2 96.9 17.2 103.6 c 2.6 2.9 5.5 5.5 8.6 7.8" class="anim_4 black"></path></g><g class="wiredog"><path d="M 36.9 108.7 l 3 3 c 0.8 0.8 0.9 2.2 0 3.1 c -0.5 0.5 -1.2 0.8 -1.9 0.7 c 0.1 0.7 -0.1 1.4 -0.6 1.9 c -0.9 0.9 -2.2 0.9 -3.1 0.1 l -3 -3 l 0.8 -0.8 l 2.9 2.8 c 0.6 0.6 1.2 0.6 1.7 0.1 c 0.5 -0.5 0.6 -1.2 -0.2 -1.9 l -2.7 -2.6 l 0.8 -0.8 l 2.7 2.6 c 0.8 0.7 1.4 0.7 1.9 0.2 c 0.5 -0.5 0.4 -1.2 -0.2 -1.7 l -2.9 -2.8 L 36.9 108.7 z"></path><path d="M 37.1 105.5 c 0.3 -0.3 0.7 -0.3 1 0 c 0.3 0.2 0.3 0.7 0 1 s -0.7 0.3 -1 0 C 36.8 106.3 36.8 105.9 37.1 105.5 z M 42.7 111.7 l -4.5 -4.3 l 0.8 -0.8 l 4.5 4.3 L 42.7 111.7 z"></path><path d="M 40.2 105.3 l 0.8 -0.8 l 0.5 0.5 l 0 0 c -0.2 -0.7 0 -1.3 0.6 -1.8 l 0.2 -0.2 l 0.8 0.8 l -0.1 0.1 c -0.8 0.8 -0.7 1.7 0.5 2.9 l 2.1 2 l -0.8 0.8 L 40.2 105.3 z"></path><path d="M 47.1 104.3 l -1 -0.3 l 0.9 -3.4 c -0.6 0 -0.9 0.1 -1.4 0.6 c -0.8 0.8 -0.8 2.1 0.1 3 s 2.1 0.9 3 0 c 0.9 -1 0.7 -1.9 0.1 -2.9 l 0.9 -0.7 c 1.1 1.2 1.1 3.1 -0.2 4.4 c -1.2 1.2 -3.2 1.4 -4.6 0.1 c -1.4 -1.3 -1.3 -3.3 -0.1 -4.6 c 1 -1 2.2 -1.2 3.5 -0.8 L 47.1 104.3 z"></path><path d="M 50 91.1 l 4.2 4 c 1.5 1.4 1.5 3.3 0.3 4.6 c -1.4 1.5 -3.4 1.2 -4.7 -0.1 c -1.3 -1.2 -1.2 -3.2 -0.1 -4.3 c 0.4 -0.4 0.9 -0.8 1.5 -1 l 0.9 0.8 c -0.5 0.1 -1.1 0.4 -1.5 0.8 c -0.9 0.9 -0.8 2.1 0.1 3 c 0.9 0.9 2.2 0.9 3 0 c 0.8 -0.8 0.8 -2 -0.4 -3.2 l -4 -3.9 L 50 91.1 z"></path><path d="M 54.8 90 c 1.2 -1.2 3.2 -1.4 4.6 -0.1 c 1.4 1.3 1.3 3.3 0.1 4.6 c -1.2 1.2 -3.2 1.4 -4.6 0.1 C 53.5 93.3 53.6 91.3 54.8 90 z M 58.7 93.8 c 0.8 -0.8 0.8 -2.1 -0.1 -3 c -0.9 -0.9 -2.1 -0.9 -3 0 c -0.8 0.8 -0.8 2.1 0.1 3 C 56.7 94.6 57.9 94.6 58.7 93.8 z"></path><path d="M 65.3 88 c -0.1 0.5 -0.4 1 -0.7 1.3 c -1.3 1.3 -3.2 1.4 -4.5 0.1 c -1.3 -1.3 -1.5 -3.2 -0.1 -4.6 c 1.3 -1.4 3.2 -1.1 4.4 0 l 2 1.9 c 1.7 1.6 1.5 3.4 0.2 4.8 c -0.5 0.5 -1.1 0.9 -1.7 1.2 l -0.6 -0.9 c 0.5 -0.3 1 -0.6 1.4 -1 c 0.7 -0.7 1.2 -1.9 0.1 -2.9 l -2.1 -2 c -1 -1 -2.3 -0.9 -3 -0.2 c -1 1 -0.6 2.2 0.2 3.1 c 0.9 0.9 2.1 0.8 2.9 -0.1 c 0.4 -0.4 0.5 -0.9 0.6 -1.4 L 65.3 88 z"></path></g><g class="design"><path d="M 72.6 67.7 l 4.2 4 c 1.5 1.4 1.6 3.3 0.3 4.6 c -1.4 1.5 -3.4 1.2 -4.7 -0.1 c -1.3 -1.2 -1.2 -3.2 -0.1 -4.3 c 0.4 -0.4 0.9 -0.8 1.5 -1 l 0.9 0.8 c -0.5 0.1 -1.1 0.4 -1.5 0.8 c -0.9 0.9 -0.8 2.1 0.1 3 c 0.9 0.9 2.2 0.9 3 0 c 0.8 -0.8 0.8 -2 -0.4 -3.2 l -4 -3.9 L 72.6 67.7 z"></path><path d="M 79.8 70.5 l -1 -0.3 l 0.9 -3.4 c -0.6 0 -0.9 0.1 -1.4 0.6 c -0.8 0.8 -0.8 2.1 0.1 3 c 0.9 0.9 2.1 0.9 3 0 c 0.9 -1 0.7 -1.9 0.1 -2.9 l 0.9 -0.7 c 1.1 1.2 1.1 3.1 -0.2 4.4 c -1.2 1.2 -3.2 1.4 -4.6 0.1 c -1.4 -1.3 -1.3 -3.3 -0.1 -4.6 c 1 -1 2.2 -1.2 3.5 -0.8 L 79.8 70.5 z"></path><path d="M 84 67.5 l 2.2 -2.3 c 0.4 -0.4 0.4 -0.7 0.1 -0.9 c -0.8 -0.8 -3.2 2.3 -4.8 0.8 c -0.8 -0.8 -0.7 -1.7 0.3 -2.7 l 1.9 -1.9 l 0.8 0.8 l -2 2.1 c -0.4 0.4 -0.4 0.6 -0.1 0.9 c 0.8 0.8 3.2 -2.4 4.8 -0.8 c 0.8 0.8 0.7 1.8 -0.1 2.6 l -2.2 2.3 L 84 67.5 z"></path><path d="M 83.9 57.3 c 0.3 -0.3 0.7 -0.3 1 0 c 0.3 0.2 0.3 0.7 0 1 c -0.3 0.3 -0.7 0.3 -1 0 C 83.6 58 83.6 57.6 83.9 57.3 z M 89.4 63.5 l -4.5 -4.3 l 0.8 -0.8 l 4.5 4.3 L 89.4 63.5 z"></path><path d="M 94.5 57.9 c -0.1 0.5 -0.4 1 -0.7 1.3 c -1.3 1.3 -3.2 1.4 -4.5 0.1 c -1.3 -1.3 -1.5 -3.2 -0.1 -4.6 c 1.3 -1.4 3.2 -1.1 4.4 0 l 2 1.9 c 1.7 1.6 1.5 3.4 0.2 4.8 c -0.5 0.5 -1.1 0.9 -1.7 1.2 l -0.6 -0.9 c 0.5 -0.3 1 -0.6 1.4 -1 c 0.7 -0.7 1.2 -1.9 0.1 -2.9 l -2.1 -2 c -1 -1 -2.3 -0.9 -3 -0.2 c -1 1 -0.6 2.2 0.2 3.1 c 0.9 0.9 2.1 0.8 2.9 -0.1 c 0.4 -0.4 0.5 -0.9 0.6 -1.4 L 94.5 57.9 z"></path><path d="M 96.5 56.2 l -2.6 -2.5 c -1.2 -1.1 -1.2 -2.7 -0.1 -3.8 c 1.1 -1.1 2.6 -1.2 3.8 0 l 2.6 2.5 l -0.8 0.8 l -2.6 -2.5 c -0.7 -0.7 -1.7 -0.6 -2.2 0 c -0.6 0.6 -0.6 1.6 0.1 2.2 l 2.6 2.5 L 96.5 56.2 z"></path></g><style>path{ stroke-width: 1.4px; stroke-linecap: round} .black{ fill: none; stroke: #333; stroke-linecap: round; stroke-linejoin: round} .eye{ fill: none; stroke: #EA1515;} .wiredog{ fill: #EA1515} .design{ fill: #333;} .anim_0{ stroke-dasharray: 104 106; stroke-dashoffset: 105; animation: drawing 301ms 447ms ease-out forwards;} .anim_1{ stroke-dasharray: 40 42; stroke-dashoffset: 41; animation: drawing 482ms 0ms ease-out forwards;} .anim_2{ stroke-dasharray: 66 68; stroke-dashoffset: 67; animation: drawing 192ms 1704ms ease-out forwards;} .anim_3, .anim_4{ stroke-dasharray: 110 112; stroke-dashoffset: 111; animation: drawing 318ms 1357ms ease-out forwards;} .anim_5{ stroke-dasharray: 265 267; stroke-dashoffset: 266; animation: drawing 763ms 614ms ease-out forwards;} @keyframes drawing{ 100%{ stroke-dashoffset: 0}} </style>
    <polyline points="88,25 42,5" fill="rgb(255, 255, 255)"/></svg>